<svg xmlns="http://www.w3.org/2000/svg" width="1120" height="530" viewBox="0 0 1120 530" role="img" aria-labelledby="title desc">
<title id="title">The Open Crate application boundary</title><desc id="desc">Your application provides storage, transport, keys, entropy, time and enforcement. Open Crate provides Format, Crypto, Protocol, Policy and Engine.</desc>
<defs><linearGradient id="b" x2="1" y2="1"><stop stop-color="#10233b"/><stop offset="1" stop-color="#213c59"/></linearGradient></defs>
<rect width="1120" height="530" rx="22" fill="#f1f5fa"/>
<g font-family="Segoe UI,Arial,sans-serif">
<text x="44" y="49" font-size="13" letter-spacing="2.4" fill="#48647f">RESPONSIBILITIES AT A GLANCE</text>
<text x="44" y="90" font-size="30" font-weight="700" fill="#142b44">Your application. A focused core.</text>
<rect x="44" y="120" width="1032" height="110" rx="16" fill="url(#b)"/>
<text x="70" y="155" font-size="20" font-weight="600" fill="#fff">APPLICATION</text>
<text x="70" y="185" font-size="17" fill="#c0d7ec">Storage · Transport · Key protection · Secure randomness · Trusted time</text>
<text x="70" y="210" font-size="17" fill="#c0d7ec">Author trust · Persistent replay state · Enforcing access decisions and obligations</text>
<path d="M560 230V284m-7-8 7 8 7-8" fill="none" stroke="#477896" stroke-width="2"/>
<text x="586" y="262" font-size="14" fill="#4d657d">explicit inputs → verified structures and decisions</text>
<rect x="44" y="294" width="1032" height="187" rx="16" fill="#fff" stroke="#d1dde9"/>
<text x="67" y="325" font-size="14" letter-spacing="2" fill="#487795">OPEN CRATE</text>
<g fill="#edf5fc" stroke="#cddfec">
<rect x="64" y="347" width="185" height="105" rx="10"/><rect x="266" y="347" width="185" height="105" rx="10"/>
<rect x="468" y="347" width="185" height="105" rx="10"/><rect x="670" y="347" width="185" height="105" rx="10"/>
<rect x="872" y="347" width="184" height="105" rx="10" fill="#fff0e4" stroke="#edccad"/>
</g>
<g font-size="19" font-weight="600" fill="#193e5a"><text x="83" y="378">Format</text><text x="285" y="378">Crypto</text><text x="487" y="378">Protocol</text><text x="689" y="378">Policy</text><text x="891" y="378" fill="#874820">Engine</text></g>
<g font-size="14" fill="#4b657d"><text x="83" y="407">Container layout</text><text x="83" y="430">Authenticated headers</text><text x="285" y="407">Encryption and keys</text><text x="285" y="430">Signatures and integrity</text><text x="487" y="407">Signed messages</text><text x="487" y="430">Leases and revocation</text><text x="689" y="407">Access evaluation</text><text x="689" y="430">Decisions + obligations</text><text x="891" y="407">Packing plans</text><text x="891" y="430">Header assembly</text></g>
<text x="44" y="511" font-size="13" fill="#526d83">Responsibility map. See the architecture page for the crate dependency graph.</text>
</g></svg>
